<?xml version="1.0" encoding="utf-8"?>
<!-- Generator: Adobe Illustrator 19.0.0, SVG Export Plug-In . SVG Version: 6.00 Build 0)  -->
<svg version="1.1" id="Layer_1" xmlns="http://www.w3.org/2000/svg" xmlns:xlink="http://www.w3.org/1999/xlink" x="0px" y="0px"
	 viewBox="0 0 169.6 34.9" style="enable-background:new 0 0 169.6 34.9;" xml:space="preserve">
<style type="text/css">
	.st0{fill:#036;}
</style>
<g>
	<g>
		<path class="st0" d="M38.7,26.2l5.2-20.9h6.7l5.2,20.9h-3.4l-1.1-4.5h-8l-1.1,4.5H38.7z M46.5,8.1l-2.6,10.6h6.7L48,8.1H46.5z"/>
	</g>
	<g>
		<path class="st0" d="M71.5,28.3c0,3.3-2.4,5-7.2,5c-2.3,0-4-0.3-5.2-0.9c-1.1-0.6-1.7-1.8-1.7-3.4c0-0.8,0.2-1.4,0.5-1.9
			c0.4-0.5,1-1.1,1.8-1.8c-0.7-0.4-1-1.2-1-2.2c0-0.4,0.3-1.1,0.8-2l0.3-0.5c-1.5-0.9-2.2-2.4-2.2-4.6c0-1.8,0.5-3.2,1.6-4
			c1.1-0.9,2.6-1.3,4.5-1.3c0.9,0,1.8,0.1,2.7,0.3l0.5,0.1l4.7-0.1v2.7L69,13.4c0.5,0.7,0.8,1.5,0.8,2.5c0,2-0.5,3.4-1.5,4.1
			c-1,0.8-2.6,1.1-4.7,1.1c-0.5,0-1,0-1.3-0.1c-0.3,0.7-0.4,1.2-0.4,1.6c0,0.4,0.2,0.6,0.6,0.8c0.4,0.1,1.3,0.2,2.7,0.2
			c2.4,0,4.1,0.3,5,1C71,25.3,71.5,26.5,71.5,28.3z M60.7,28.6c0,0.7,0.3,1.2,0.9,1.5c0.6,0.3,1.5,0.5,2.9,0.5
			c2.5,0,3.7-0.7,3.7-2.1c0-0.8-0.2-1.3-0.7-1.5c-0.4-0.2-1.3-0.3-2.6-0.4l-3-0.2c-0.4,0.4-0.8,0.7-0.9,1
			C60.8,27.7,60.7,28.1,60.7,28.6z M61.6,18c0.4,0.4,1.2,0.7,2.2,0.7c1,0,1.7-0.2,2.1-0.7c0.4-0.4,0.7-1.1,0.7-2.1s-0.2-1.6-0.7-2.1
			c-0.4-0.4-1.2-0.7-2.2-0.7c-1.9,0-2.8,0.9-2.8,2.7C60.9,16.9,61.1,17.6,61.6,18z"/>
	</g>
	<g>
		<path class="st0" d="M74.6,26.2V5.3h3.4v20.9H74.6z"/>
	</g>
	<g>
		<path class="st0" d="M90,26.2h-7.2V5.3H90c3.2,0,5.4,0.8,6.6,2.4c1.2,1.6,1.8,4.2,1.8,7.7c0,1.8-0.1,3.3-0.4,4.5
			c-0.2,1.2-0.6,2.3-1.2,3.3C95.6,25.2,93.3,26.2,90,26.2z M94.8,15.4c0-2.5-0.3-4.3-0.9-5.5c-0.6-1.1-1.9-1.7-3.9-1.7h-3.8v14.9H90
			c2,0,3.4-0.7,4-2.2c0.3-0.8,0.5-1.6,0.7-2.4C94.8,17.7,94.8,16.7,94.8,15.4z"/>
	</g>
</g>
<g>
	<g>
		<path class="st0" d="M104.3,13.5l2.2-8.1h2l2.2,8.1h-0.9l-0.6-2.1h-3.5l-0.6,2.1H104.3z M107.2,6.1l-1.2,4.5h3.1l-1.2-4.5H107.2z"
			/>
	</g>
	<g>
		<path class="st0" d="M114.1,16.3c-0.9,0-1.6-0.1-2-0.4c-0.4-0.3-0.6-0.7-0.6-1.4c0-0.3,0.1-0.6,0.2-0.8c0.1-0.2,0.4-0.4,0.7-0.7
			c-0.2-0.1-0.3-0.4-0.3-0.8c0-0.1,0.1-0.4,0.3-0.7l0.1-0.2c-0.6-0.3-0.9-0.9-0.9-1.8c0-1.3,0.7-2,2.2-2c0.4,0,0.7,0,1,0.1l0.2,0
			l1.7,0v0.8l-1.1,0c0.3,0.3,0.4,0.7,0.4,1.2c0,0.7-0.2,1.3-0.5,1.5c-0.4,0.3-0.9,0.4-1.7,0.4c-0.2,0-0.4,0-0.6,0
			c-0.1,0.3-0.2,0.6-0.2,0.7c0,0.2,0.1,0.4,0.2,0.5c0.1,0.1,0.6,0.1,1.4,0.1c0.8,0,1.3,0.1,1.6,0.4c0.3,0.2,0.5,0.7,0.5,1.4
			C116.7,15.6,115.9,16.3,114.1,16.3z M112.5,14.4c0,0.4,0.1,0.7,0.3,0.9c0.2,0.2,0.7,0.2,1.3,0.2c0.6,0,1.1-0.1,1.3-0.3
			c0.3-0.2,0.4-0.5,0.4-0.9c0-0.4-0.1-0.7-0.3-0.8c-0.2-0.1-0.6-0.2-1.2-0.2l-1.3-0.1c-0.3,0.2-0.4,0.4-0.5,0.5
			C112.5,14,112.5,14.2,112.5,14.4z M112.5,9.5c0,0.5,0.1,0.8,0.3,1c0.2,0.2,0.6,0.3,1,0.3c0.5,0,0.8-0.1,1-0.3
			c0.2-0.2,0.3-0.5,0.3-1c0-0.5-0.1-0.8-0.3-1c-0.2-0.2-0.5-0.3-1-0.3c-0.5,0-0.8,0.1-1,0.3C112.6,8.7,112.5,9.1,112.5,9.5z"/>
	</g>
	<g>
		<path class="st0" d="M122,12.8l0.3,0l0,0.7c-0.9,0.1-1.7,0.2-2.3,0.2c-0.8,0-1.4-0.2-1.8-0.7c-0.4-0.5-0.5-1.3-0.5-2.3
			c0-2.1,0.8-3.1,2.5-3.1c0.8,0,1.4,0.2,1.8,0.7c0.4,0.4,0.6,1.1,0.6,2.1l0,0.7h-3.9c0,0.7,0.1,1.1,0.4,1.4c0.2,0.3,0.6,0.5,1.2,0.5
			C120.8,12.8,121.4,12.8,122,12.8z M121.7,10.2c0-0.7-0.1-1.2-0.3-1.5c-0.2-0.3-0.6-0.4-1.1-0.4c-0.5,0-0.9,0.2-1.2,0.5
			c-0.3,0.3-0.4,0.8-0.4,1.5H121.7z"/>
	</g>
	<g>
		<path class="st0" d="M124.9,13.5h-0.9V7.6h0.9V8c0.6-0.4,1.2-0.5,1.8-0.5c0.8,0,1.3,0.2,1.6,0.6c0.3,0.4,0.4,1.2,0.4,2.3v3.1h-0.9
			v-3.1c0-0.8-0.1-1.4-0.2-1.7c-0.2-0.3-0.5-0.5-1-0.5c-0.3,0-0.5,0-0.8,0.1c-0.3,0.1-0.5,0.1-0.6,0.2l-0.2,0.1V13.5z"/>
	</g>
	<g>
		<path class="st0" d="M130.1,8.4V7.6h4.4v0.8l-3.3,4.3h3.3v0.8h-4.4v-0.8l3.3-4.3H130.1z"/>
	</g>
	<g>
		<path class="st0" d="M136,6.3v-1h0.9v1H136z M136,13.5V7.6h0.9v5.9H136z"/>
	</g>
	<g>
		<path class="st0" d="M142.8,9.4v3c0,0.3,0.3,0.5,0.7,0.5l0,0.7c-0.6,0-1.1-0.2-1.4-0.5c-0.7,0.3-1.4,0.5-2.1,0.5
			c-0.5,0-1-0.2-1.2-0.5c-0.3-0.3-0.4-0.7-0.4-1.3c0-0.6,0.1-1,0.4-1.3c0.3-0.3,0.7-0.4,1.4-0.5l1.8-0.2V9.4c0-0.4-0.1-0.7-0.3-0.9
			c-0.2-0.2-0.4-0.3-0.7-0.3c-0.6,0-1.3,0-2,0.1l-0.4,0l0-0.7c0.9-0.2,1.6-0.3,2.3-0.3s1.1,0.2,1.5,0.5
			C142.6,8.3,142.8,8.8,142.8,9.4z M139.2,11.8c0,0.7,0.3,1.1,0.9,1.1c0.5,0,1.1-0.1,1.6-0.3l0.3-0.1v-1.9l-1.7,0.2
			c-0.4,0-0.6,0.1-0.8,0.3C139.3,11.2,139.2,11.5,139.2,11.8z"/>
	</g>
	<g>
		<path class="st0" d="M147.4,16.1V7.6h0.9v0.4c0.6-0.4,1.2-0.5,1.8-0.5c0.7,0,1.3,0.2,1.6,0.7c0.3,0.5,0.5,1.3,0.5,2.3
			c0,1.1-0.2,1.9-0.6,2.3c-0.4,0.5-1.1,0.7-2,0.7c-0.5,0-0.9,0-1.3-0.1v2.6H147.4z M149.9,8.3c-0.2,0-0.5,0-0.8,0.1
			c-0.3,0.1-0.5,0.2-0.6,0.2l-0.2,0.1v4c0.6,0.1,1,0.1,1.3,0.1c0.6,0,1.1-0.2,1.3-0.5c0.3-0.4,0.4-0.9,0.4-1.8
			c0-0.8-0.1-1.4-0.3-1.7C150.6,8.5,150.3,8.3,149.9,8.3z"/>
	</g>
	<g>
		<path class="st0" d="M157.7,12.8l0.3,0l0,0.7c-0.9,0.1-1.7,0.2-2.3,0.2c-0.8,0-1.4-0.2-1.8-0.7c-0.4-0.5-0.5-1.3-0.5-2.3
			c0-2.1,0.8-3.1,2.5-3.1c0.8,0,1.4,0.2,1.8,0.7c0.4,0.4,0.6,1.1,0.6,2.1l0,0.7h-3.9c0,0.7,0.1,1.1,0.4,1.4c0.2,0.3,0.6,0.5,1.2,0.5
			C156.5,12.8,157.1,12.8,157.7,12.8z M157.3,10.2c0-0.7-0.1-1.2-0.3-1.5c-0.2-0.3-0.6-0.4-1.1-0.4c-0.5,0-0.9,0.2-1.2,0.5
			c-0.3,0.3-0.4,0.8-0.4,1.5H157.3z"/>
	</g>
	<g>
		<path class="st0" d="M159.7,13.5V7.6h0.9v0.8c0.7-0.5,1.4-0.8,2.2-0.9v0.9c-0.3,0.1-0.7,0.2-1,0.3c-0.4,0.1-0.6,0.3-0.8,0.4
			l-0.3,0.2v4.3H159.7z"/>
	</g>
</g>
<g>
	<g>
		<path class="st0" d="M104.9,26.1v-8.4h0.9v8.4H104.9z"/>
	</g>
	<g>
		<path class="st0" d="M107.1,20.4l0.5-2.6h0.9l-0.7,2.6H107.1z"/>
	</g>
	<g>
		<path class="st0" d="M109.9,26.1V18h0.9v8.1H109.9z"/>
	</g>
	<g>
		<path class="st0" d="M115.4,21h-1.8v2.8c0,0.7,0,1.1,0.1,1.3c0.1,0.2,0.3,0.3,0.7,0.3l1-0.1l0.1,0.7c-0.5,0.1-0.9,0.1-1.2,0.1
			c-0.6,0-1-0.1-1.2-0.4c-0.2-0.3-0.3-0.9-0.3-1.7V21h-0.8v-0.8h0.8v-1.8h0.9v1.8h1.8V21z"/>
	</g>
	<g>
		<path class="st0" d="M120.4,22v3c0,0.3,0.2,0.5,0.7,0.5l0,0.7c-0.6,0-1.1-0.2-1.4-0.5c-0.7,0.3-1.4,0.5-2.1,0.5
			c-0.5,0-0.9-0.2-1.2-0.5c-0.3-0.3-0.4-0.7-0.4-1.3s0.1-1,0.4-1.3c0.3-0.3,0.7-0.4,1.3-0.5l1.8-0.2V22c0-0.4-0.1-0.7-0.3-0.9
			c-0.2-0.2-0.4-0.3-0.7-0.3c-0.6,0-1.3,0-1.9,0.1l-0.4,0l0-0.7c0.8-0.2,1.6-0.3,2.2-0.3c0.7,0,1.1,0.2,1.4,0.5
			C120.3,20.9,120.4,21.4,120.4,22z M116.9,24.4c0,0.7,0.3,1.1,0.9,1.1c0.5,0,1-0.1,1.5-0.3l0.3-0.1v-1.9l-1.7,0.2
			c-0.3,0-0.6,0.1-0.7,0.3C117,23.8,116.9,24.1,116.9,24.4z"/>
	</g>
	<g>
		<path class="st0" d="M122.1,26.1v-8.4h0.9v8.4H122.1z"/>
	</g>
	<g>
		<path class="st0" d="M124.6,18.9v-1h0.9v1H124.6z M124.6,26.1v-5.9h0.9v5.9H124.6z"/>
	</g>
	<g>
		<path class="st0" d="M131.1,22v3c0,0.3,0.2,0.5,0.7,0.5l0,0.7c-0.6,0-1.1-0.2-1.4-0.5c-0.7,0.3-1.4,0.5-2.1,0.5
			c-0.5,0-0.9-0.2-1.2-0.5c-0.3-0.3-0.4-0.7-0.4-1.3s0.1-1,0.4-1.3c0.3-0.3,0.7-0.4,1.3-0.5l1.8-0.2V22c0-0.4-0.1-0.7-0.3-0.9
			c-0.2-0.2-0.4-0.3-0.7-0.3c-0.6,0-1.3,0-1.9,0.1l-0.4,0l0-0.7c0.8-0.2,1.6-0.3,2.2-0.3c0.7,0,1.1,0.2,1.4,0.5
			C130.9,20.9,131.1,21.4,131.1,22z M127.5,24.4c0,0.7,0.3,1.1,0.9,1.1c0.5,0,1-0.1,1.5-0.3l0.3-0.1v-1.9l-1.7,0.2
			c-0.3,0-0.6,0.1-0.7,0.3C127.6,23.8,127.5,24.1,127.5,24.4z"/>
	</g>
	<g>
		<path class="st0" d="M138.1,26.1h-2.8V18h2.8c1.3,0,2.2,0.5,2.6,1.6c0.2,0.6,0.4,1.4,0.4,2.4c0,2-0.5,3.3-1.5,3.9
			C139.1,26,138.6,26.1,138.1,26.1z M140.1,21.9c0-1.6-0.3-2.5-1-2.9c-0.3-0.2-0.6-0.2-1-0.2h-2v6.5h2
			C139.4,25.3,140.1,24.2,140.1,21.9z"/>
	</g>
	<g>
		<path class="st0" d="M142.4,18.9v-1h0.9v1H142.4z M142.4,26.1v-5.9h0.9v5.9H142.4z"/>
	</g>
	<g>
		<path class="st0" d="M147,28.9c-0.9,0-1.6-0.1-1.9-0.4c-0.4-0.3-0.5-0.7-0.5-1.4c0-0.3,0.1-0.6,0.2-0.8c0.1-0.2,0.4-0.4,0.7-0.7
			c-0.2-0.1-0.3-0.4-0.3-0.8c0-0.1,0.1-0.4,0.3-0.7l0.1-0.2c-0.6-0.3-0.9-0.9-0.9-1.8c0-1.3,0.7-2,2.2-2c0.4,0,0.7,0,1,0.1l0.2,0
			l1.7,0V21l-1.1,0c0.3,0.3,0.4,0.7,0.4,1.2c0,0.7-0.2,1.3-0.5,1.5c-0.4,0.3-0.9,0.4-1.7,0.4c-0.2,0-0.4,0-0.6,0
			c-0.1,0.3-0.2,0.6-0.2,0.7c0,0.2,0.1,0.4,0.2,0.5c0.1,0.1,0.6,0.1,1.3,0.1c0.7,0,1.3,0.1,1.6,0.4c0.3,0.2,0.5,0.7,0.5,1.4
			C149.6,28.3,148.7,28.9,147,28.9z M145.4,27c0,0.4,0.1,0.7,0.3,0.9c0.2,0.2,0.6,0.2,1.3,0.2c0.6,0,1-0.1,1.3-0.3
			c0.3-0.2,0.4-0.5,0.4-0.9c0-0.4-0.1-0.7-0.3-0.8c-0.2-0.1-0.6-0.2-1.1-0.2L146,26c-0.3,0.2-0.4,0.4-0.5,0.5
			C145.4,26.6,145.4,26.8,145.4,27z M145.5,22.1c0,0.5,0.1,0.8,0.3,1c0.2,0.2,0.5,0.3,1,0.3c0.5,0,0.8-0.1,1-0.3
			c0.2-0.2,0.3-0.5,0.3-1c0-0.5-0.1-0.8-0.3-1c-0.2-0.2-0.5-0.3-1-0.3c-0.5,0-0.8,0.1-1,0.3C145.6,21.4,145.5,21.7,145.5,22.1z"/>
	</g>
	<g>
		<path class="st0" d="M150.6,18.9v-1h0.9v1H150.6z M150.6,26.1v-5.9h0.9v5.9H150.6z"/>
	</g>
	<g>
		<path class="st0" d="M156,21h-1.8v2.8c0,0.7,0,1.1,0.1,1.3c0.1,0.2,0.3,0.3,0.7,0.3l1-0.1l0.1,0.7c-0.5,0.1-0.9,0.1-1.2,0.1
			c-0.6,0-1-0.1-1.2-0.4c-0.2-0.3-0.3-0.9-0.3-1.7V21h-0.8v-0.8h0.8v-1.8h0.9v1.8h1.8V21z"/>
	</g>
	<g>
		<path class="st0" d="M161,22v3c0,0.3,0.2,0.5,0.7,0.5l0,0.7c-0.6,0-1.1-0.2-1.4-0.5c-0.7,0.3-1.4,0.5-2.1,0.5
			c-0.5,0-0.9-0.2-1.2-0.5c-0.3-0.3-0.4-0.7-0.4-1.3s0.1-1,0.4-1.3c0.3-0.3,0.7-0.4,1.3-0.5l1.8-0.2V22c0-0.4-0.1-0.7-0.3-0.9
			c-0.2-0.2-0.4-0.3-0.7-0.3c-0.6,0-1.3,0-1.9,0.1l-0.4,0l0-0.7c0.8-0.2,1.6-0.3,2.2-0.3c0.7,0,1.1,0.2,1.4,0.5
			C160.8,20.9,161,21.4,161,22z M157.4,24.4c0,0.7,0.3,1.1,0.9,1.1c0.5,0,1-0.1,1.5-0.3l0.3-0.1v-1.9l-1.7,0.2
			c-0.3,0-0.6,0.1-0.7,0.3C157.5,23.8,157.4,24.1,157.4,24.4z"/>
	</g>
	<g>
		<path class="st0" d="M162.6,26.1v-8.4h0.9v8.4H162.6z"/>
	</g>
	<g>
		<path class="st0" d="M169,25.4l0.3,0l0,0.7c-0.9,0.1-1.6,0.2-2.2,0.2c-0.8,0-1.4-0.2-1.8-0.7c-0.3-0.5-0.5-1.3-0.5-2.3
			c0-2.1,0.8-3.1,2.4-3.1c0.8,0,1.4,0.2,1.7,0.7c0.4,0.4,0.6,1.1,0.6,2.1l0,0.7h-3.8c0,0.7,0.1,1.1,0.3,1.4c0.2,0.3,0.6,0.5,1.2,0.5
			C167.9,25.5,168.5,25.4,169,25.4z M168.7,22.8c0-0.7-0.1-1.2-0.3-1.5c-0.2-0.3-0.6-0.4-1.1-0.4c-0.5,0-0.9,0.2-1.2,0.5
			c-0.3,0.3-0.4,0.8-0.4,1.5H168.7z"/>
	</g>
</g>
<g>
	<g>
		<path class="st0" d="M22.1,23.2c0.1,0,0.4,0.1,0.3,0.2c-0.1,0.1-0.1,0.3-0.2,0.3c-0.1,0-0.3-0.1-0.3-0.3
			C21.8,23.3,21.9,23.2,22.1,23.2L22.1,23.2z"/>
	</g>
	<g>
		<path class="st0" d="M9.4,27.2c0.2,0.1,0.3,0.1,0.5,0L9.7,27l-0.3-0.2c-0.1-0.1-0.3,0-0.4,0.2L9.4,27.2L9.4,27.2z"/>
	</g>
	<g>
		<path class="st0" d="M17.6,32.8c0,0.1,0,0.2,0.1,0.2c0.1,0.1,0.2,0.1,0.3,0.1L17.6,32.8L17.6,32.8z"/>
	</g>
	<g>
		<path class="st0" d="M28.7,16.9c0.1-0.6,0-1-0.2-1.2c-0.2-0.2-0.5-0.1-0.8,0.2c-0.2-0.1-0.5,0-0.8,0.3c0.1-0.1,0.1-0.3,0-0.4
			c0.3-0.1,0.5-0.3,0.6-0.5c0.1-0.2,0.1-0.4,0.1-0.8c0-0.2,0.2-0.6,0.6-1.2c0.3-0.6,0.1-0.8-0.5-0.6c0.3-0.3,0.5-0.6,0.5-0.8
			c0-0.2-0.1-0.5-0.3-0.8c-0.1-0.2-0.2-0.2-0.4-0.1c0.1-0.1,0.1-0.3,0.1-0.4c0-0.2-0.1-0.5-0.3-1c0-0.7-0.2-1-0.5-0.8
			c0-0.4-0.2-0.7-0.3-1c-0.3-0.4-0.5-0.5-0.7-0.3c-0.4-0.7-0.9-0.9-1.3-0.8c0-0.3-0.1-0.5-0.3-0.8c-0.1-0.4-0.2-0.7-0.4-0.9
			c-0.2-0.1-0.4,0-0.4,0.3c0-0.3-0.1-0.5-0.2-0.8c-0.1-0.3-0.3-0.4-0.6-0.4c-0.1,0-0.2,0-0.3,0.1C22.2,4,22,4,21.9,4
			c-0.4-0.4-0.7-0.4-1.1-0.1l-0.1-0.4c-0.1-0.4-0.3-0.5-0.7-0.3c-0.6-0.6-1-1-1.4-1.2C18.3,2,18.1,2,18,2.2
			c-0.2-0.2-0.4-0.3-0.6-0.3c-0.2,0-0.4-0.1-0.6-0.2c-0.3,0-0.4,0.1-0.3,0.4c-0.4,0-0.7,0.1-0.9,0.2c-0.2,0.1-0.2,0.3-0.1,0.5
			c0.1,0.2,0.2,0.4,0.5,0.5C16,3.4,16,3.6,16,3.7c0,0.2,0.2,0.3,0.6,0.4c0.3,0.1,0.5,0.1,0.8,0c-0.1,0.3,0,0.4,0.3,0.5
			c0.3,0.3,0.7,0.4,1.2,0.3l-0.1,0.3l0.7,0.3c0,0.3,0.2,0.6,0.4,0.7l0.3,0.1c-0.1,0-0.3,0.2-0.3,0.2C19.8,6.7,19.7,7,20,7
			c0.3,0,0.6,0.1,0.9,0.1c0,0.1,0.1,0.2,0.1,0.3c0,0.1,0.2,0.3,0.4,0.5c0.2,0.2,0.5,0.4,0.8,0.5c0,0-0.1,0.2-0.2,0.5
			c-0.1,0.2-0.1,0.7,0,0.9c0,0-0.2,0.1-0.3,0.2c-0.2,0.3,0.2,0.8,0.3,1c0,0-0.2,0.1-0.2,0.1c-0.2,0.1-0.1,0.7,0.3,0.8
			c0.1,0.1,0.6,0.4,0.9,0.6c0,0.1,0.2,0.3,0.4,0.6c0.1,0.1,0.2,0.4,0.5,0.4c0.2,0.8,0.7,1.6,1.1,2.3c0,0,0.4,0.5,0.6,0.9
			c-0.1,0.3,0,0.5,0,0.5c-0.1,0.6-0.2,1.1-0.3,1.5c-0.5-0.2-0.6,0.1-0.6,0.4c0,0-0.2,0-0.3,0.1c0-0.2-0.3-0.4-0.4-0.3
			c0,0-0.2,0.1-0.3,0.2c0,0-0.1-0.2-0.1-0.3c0-0.1,0-0.4,0-0.5c0,0,0.1-0.2,0.2-0.3c0.1-0.3,0-1.1-0.1-1.6c-0.1-0.2-0.2-0.3-0.3-0.3
			c0,0-0.3,0-0.3,0.2c0-0.1-0.2-0.2-0.3-0.2c-0.4-0.1-0.8,0.6-0.7,1.3c-0.3-0.2-0.6-0.1-0.6,0.2c0.1,0.5,0.9,1.5,0.9,1.9
			c-0.2-0.2-0.8-0.2-0.8,0.3c0,0.2,0.1,0.4,0.2,0.5c-0.1,0.5,0.5,0.9,1,1.5c0,0.2,0.1,0.2,0.2,0.3c-0.1,0.1-0.7,1.1-0.7,1.1
			c0,0-0.4-0.2-0.6-0.1c-0.1,0.1-0.3,0.3-0.3,0.4l0.1,0.6c0,0.3-0.1,0.6-0.4,0.9c-0.3,0.3-0.5,0.6-0.6,0.9c-0.1,0.2-0.3,0.4-0.7,0.7
			c0-0.1-0.1-0.2-0.3-0.3c0,0-0.1-0.1-0.1-0.1c-0.4,0.1-1.2,0.6-2.4,1.1c-0.2,0.1-0.5,0.4-0.9,1h-0.7c-0.2-0.2-0.4-0.4-0.6-0.5
			c-0.1-0.1-0.4-0.1-0.8,0.1c-0.4-0.1-0.7,0-1.1,0.2c-0.2,0.1-0.4,0.1-0.5,0l-0.8-0.9c-1.7-0.7-2.7-1.1-2.9-1
			c-0.2,0.1-0.3,0.3-0.4,0.4c-0.2-0.1-0.4-0.3-0.8-0.7l-0.5-0.6c-0.4-0.4-0.6-0.8-0.5-1.2l0.1-0.5c0-0.1,0-0.1,0-0.2
			c-0.1-0.1-0.3-0.2-0.5-0.2c0,0-0.1,0-0.2,0.3c0,0.1-0.6-0.8-0.6-0.8C5.8,22.5,6,22,6.2,21.5c0.2-0.6,0.3-1.4,0.3-1.6
			c0-0.1,0-0.1,0.1-0.1c0.3-0.2,0.6-2.1,0.5-2.6C7,17,7,16.9,6.9,16.9c-0.1,0-0.1,0-0.1,0l0.1-0.2c0.1-0.1,0.1-0.2,0-0.3
			c0,0-0.3,0-0.6,0.1c0-0.3-0.2-0.7-0.2-0.9c0-0.1-0.1,0-0.1,0c-0.5,0.3-0.7,0.9-0.9,1.7l-0.1,0.1c-0.6,0.8-1.1,1.7-1.3,2.7
			c-0.1-0.2-0.2-0.4-0.3-0.7c-0.1-0.3-0.1-0.5-0.1-0.6c0.1-0.2,0.1-0.3-0.1-0.4c-0.1-0.1-0.3-0.6-0.4-1.5c0-0.2,0.1-0.6,0.3-1.1
			c0.2-0.5,0.5-1.1,0.9-1.8c0,0,0.2-0.2,0.3-0.2c0.6-0.1,3.2-3.6,3-5.2c0,0.2,1.1-1.9,1.2-2.3l0.1,0l0.2-0.1
			c0.6-0.2,1.1-0.5,1.5-0.7l0.7-0.4c0.5-0.2,0.9-0.5,1.4-0.8C12.7,3.9,12.9,3.5,13,3c-0.1-0.1-0.3-0.2-0.7-0.2
			c0.2-0.2,0.3-0.5,0.3-0.7C12.4,1.9,12,1.9,11.3,2c-0.8,0.2-1.5,0.5-2,0.9C8.6,3.3,8.1,3.8,7.6,4.3C7.1,4.9,6.7,5.4,6.5,6l0.3-0.8
			C7,4.8,7.2,4.4,7.3,3.9c0.1-0.2,0.1-0.4,0-0.5C7.3,3.3,7.2,3.2,7,3.3C6.8,3.3,6.5,3.6,6,4C5.5,4.6,5,5.2,4.6,6
			C4.2,6.8,3.9,7.4,3.8,7.9c0.1-0.5,0.1-1,0-1.3C3.7,6.4,3.6,6.4,3.4,6.4C3.2,6.6,3,6.8,2.8,7C2.6,7.3,2.5,7.5,2.3,7.7
			C2.1,8,1.9,8.3,1.7,8.7c-0.2,0.4-0.4,1-0.6,1.5c-0.2,0.6-0.3,1.4-0.4,2.4c-0.1,0.6,0,1.3,0.1,2C1,15.4,1.2,16,1.3,16.3
			c0.2,0.3,0.4,0.5,0.5,0.6c0.1,0.3,0.2,0.7,0.4,1.3c0.1,0.3,0.1,0.5,0.1,0.6c0,0.1,0,0.2,0.1,0.3c0.1,0.1,0.2,0.2,0.2,0.3
			C2.9,20,3.1,20.5,3.3,21c0,0.3-0.1,0.5-0.1,0.8c-0.6-1.6-1-2.8-1.3-3.6c-0.7-1.5-1.2-2.2-1.6-2C0.2,16.1,0,16.3,0,16.6
			c0,0.1,0,0.4,0,0.8c0,0.4,0.1,0.9,0.1,1.3c0.3,1.5,0.9,2.8,1.8,3.8L3.1,24c0.3,0.3,0.5,0.4,0.7,0.6c0.2,0.1,0.4,0.2,0.6,0.1
			c0.3,0.5,0.6,0.9,1.1,1.4c0.3,0.4,0.6,0.6,0.9,0.6C6.6,27,6.8,27.1,7,27.1l0.3,0c0.4,0.3,0.7,0.6,1,0.8l-0.3,0.9
			C7.3,28.9,6.8,29,6.3,29c-0.4-0.3-1.1-0.8-1.9-1.3l-0.1-1c0-0.4,0-0.7,0.2-0.9c0-0.2-0.1-0.4-0.3-0.5C3.9,25,3.7,25,3.6,25
			c-0.1,0,0,0.1,0,0.2v0.1c0-0.1,0-0.1,0.1,0c0.5,0.1,0.7,0.3,0.7,0.5c-0.1,0.3-0.2,0.5-0.2,0.9l0,0.9c-0.6-0.4-1.3-0.8-2-1.1
			c0.1,0,0.2,0,0.3,0c0.1,0,0.2,0,0.2-0.1c0-0.1,0-0.1-0.2-0.1c-0.4,0-0.6,0-0.7,0.1c-0.1,0.1-0.1,0.2,0.1,0.3
			c0.8,0.4,1.6,0.8,2.2,1.2c1,0.6,1.8,1.1,2.3,1.5c0.5,0,1.3-0.1,2.3-0.2l1.5-0.3c0.6-0.1,1.2-0.2,1.9-0.3c0.2,0,0.5-0.1,0.9-0.1
			c0.4,0,0.7,0,1-0.1c0.3,0.6,0.5,1.1,0.6,1.5c0,0.2,0,0.3-0.1,0.4c-1.4,0.5-2.3,0.8-2.9,1c-0.6,0.1-1.1,0.2-1.6,0.4
			c-1.2,0.2-2.4,0.4-3.6,0.5c-0.3-0.1-1.2-0.5-2.6-1.3c-1-0.6-1.7-1.1-2.1-1.5c-0.5-0.5-0.6-0.8-0.6-0.9c0.3-0.5,0.5-0.9,0.6-1.3
			c0-0.2,0.1-0.3,0-0.4c-0.1-0.4,0-0.6,0.3-0.6c0.8,0,1.3-0.1,1.5,0c0.1,0,0.2,0,0.2-0.1l0.3-0.5l-0.2-0.1l-0.2,0.3l0-0.3v0.5
			l-1.7,0c-0.1,0-0.3,0.1-0.4,0.2c-0.1,0.1-0.1,0.3,0,0.7c0,0.1,0,0.2,0,0.3c-0.1,0.4-0.3,0.8-0.6,1.3c0,0.1,0,0.2,0.1,0.4
			c0.1,0.2,0.3,0.4,0.6,0.8C1.5,29.6,1.7,29.8,2,30c0.3,0.2,0.8,0.6,1.6,1c0.9,0.5,1.8,1,2.6,1.3c0.2,0,1.3-0.1,3.4-0.5l0,0.2
			c-0.6,0.5-1,0.6-1.2,0.6c-0.2,0-0.3,0.2-0.2,0.5c0.1,0.1,0.2,0.3,0.4,0.3l0.2,0.3l0.6,0.4c0.2,0.1,0.5,0.1,0.7,0
			c0.2-0.1,0.3-0.3,0.4-0.5l0.1-0.1l0.7-0.7l0.5-0.4c0.4-0.1,0.6-0.2,0.8-0.4c0-0.2,0.1-0.3,0.2-0.3l0.6-0.4c0-0.1,0.3,0,0.7,0.3
			c0.2,0.1,0.4,0,0.6,0l0.4-0.3c0.4,0.1,1.1,0.6,2.1,1.5c0,0.1,0.1,0.2,0.2,0.4c0.1,0.1,0.3,0.2,0.7,0.3l0.2,0.4l0.2,0.1
			c0.4,0,0.7-0.1,1-0.4l0.4-0.1c0.2-0.1,0.3-0.3,0.3-0.4l-0.2-0.2l-0.3-0.1c-0.4-0.2-0.8-0.5-1.3-0.8l-0.3-0.2
			c1.3,0.2,2.8,0.4,4.7,0.5c0.2,0,0.5-0.1,0.9-0.4c0.4-0.3,1.5-1.1,3.5-2.5c0.3-0.3,0.5-0.7,0.7-1.1c-0.2-0.2-0.3-0.4-0.5-0.7
			c-0.1-0.3-0.2-0.5-0.2-0.8c0-0.2-0.1-0.4,0-0.5c0-0.2,0-0.3-0.2-0.4c-0.1-0.1-0.2-0.1-0.4-0.2c-0.4,0-0.8,0-1.2,0
			c-0.2,0-0.3-0.1-0.4-0.2l0-0.4c0-0.2,0-0.3-0.2-0.2c-0.5,0.1-0.8,0.3-0.9,0.4c-0.1,0.2-0.1,0.3,0,0.5c0.1,0.1,0.2,0.2,0.2,0.4
			c-0.1,0.8-0.1,1.3-0.2,1.5c-0.8,0.7-1.4,1.1-1.7,1.2c-0.2,0.1-0.8,0-1.6-0.1c-0.2-0.2-0.3-0.4-0.4-0.8c0.3-0.2,0.6-0.4,0.9-0.6
			c0.2,0,0.4-0.1,0.6-0.1c0.1-0.1,0.2-0.2,0.2-0.4c0.1-0.1,0.3-0.2,0.3-0.4l1-1.2c0.3-0.3,0.7-0.4,1-0.5c0.5,0,1.1-0.3,1.8-0.8
			c0.1-0.1,0.1-0.3,0-0.5c0.2-0.1,0.6-0.5,1.1-1.1c0.2-0.3,0.2-0.6,0.1-0.9c0.5-0.6,0.7-1,0.8-1.3c0-0.3,0-0.6,0-0.9
			c0.2-0.1,0.4-0.3,0.5-0.4c0.1-0.1,0.1-0.2,0.1-0.4c0-0.2-0.1-0.3-0.2-0.4C28.9,17.7,29,17.3,28.7,16.9z M12.7,3.1
			c0,0.2-0.1,0.5-0.4,0.7c-0.4,0.4-0.9,0.7-1.5,1C10.2,5.2,9.4,5.6,8.6,6V5.9c1.1-0.9,2.2-1.6,3.2-2.1c0.3-0.2,0.2-0.2-0.1-0.1
			c-0.3,0.2-0.7,0.4-1.1,0.6c-0.7,0.4-1.4,0.9-2,1.3l0-0.2c1.3-1.1,2.4-1.9,3.2-2.2C12.1,3,12.4,3,12.7,3.1z M8.8,3.6
			C9.4,3,10.2,2.6,11,2.3c0.4-0.1,0.8-0.2,1.1-0.2c0.1,0,0.2,0.1,0.1,0.3l-0.4,0.5c-0.3,0-0.8,0.2-1.4,0.6C9.9,3.8,9.3,4.3,8.6,4.8
			L8.4,5C8.3,4.9,8,4.9,7.7,5.1c1.1-0.9,2-1.6,2.8-2c0.5-0.3,0.8-0.4,0.9-0.5c-0.3,0.1-0.6,0.2-1.1,0.5C9.8,3.3,9.1,3.8,8,4.6L7,5.5
			C7.6,4.7,8.2,4.1,8.8,3.6z M7.7,5.5C7.9,5.4,8,5.3,8.1,5.3c0,0.1,0.1,0.3,0,0.5C8.1,6,8,6.4,7.7,7.1L7.1,8.3
			C6.6,8.4,6.2,8.6,5.8,8.9C6,8.6,6.2,8.2,6.5,7.7c0.3-0.5,0.7-1.1,1.4-2.1C8,5.5,8,5.4,7.9,5.5c-0.1,0.1-0.4,0.4-0.8,1
			C6.7,7.1,6.1,8,5.4,9.2c-0.2,0.3-0.7,1-1.4,2.2l0.1-0.3l1-1.8l1-1.9C6.6,6.6,7.1,5.9,7.7,5.5z M3.5,9.7c0.5-0.7,1-1.8,1.7-3.2
			C5.4,6.1,5.6,5.7,6,5.2c0.1-0.3,0.1-0.3-0.2,0C5.3,5.9,4.6,7,3.9,8.5l0.3-0.8c0.1-0.2,0.2-0.6,0.6-1.2c0.3-0.6,0.6-1.2,0.9-1.5
			C6,4.5,6.2,4.2,6.3,4.1C6.7,3.8,6.9,3.6,7,3.6c0.1,0,0.1,0.1,0.1,0.2L6.2,6C5.7,7.1,4.9,8.2,4,9.4C3.7,9.8,3.4,10,3.3,10.2
			c-0.1,0.1-0.2,0.2-0.2,0.3l0.1-0.3L3.5,9.7z M4,11.6c-0.2,0.4-0.4,0.8-0.6,1.2l-0.1,0l0.4-1.1L4,11.6z M2.7,14.6l0.1-0.5l0.1-0.5
			l0.3-0.1l-0.3,0.9l-0.2,0.8L2.7,14.6z M2.6,12.7c0.1-0.5,0.2-1,0.3-1.4l0.1,0.2L2.6,12.7z M2,16.1L1.9,16c-0.1-0.1,0.1-0.8,0.4-2
			C2.2,14.9,2.1,15.6,2,16.1z M1.7,15.1c-0.1-0.5,0-1.5,0.2-3c0.2-1.5,0.5-2.6,0.8-3.2c0.1-0.3,0.1-0.4,0-0.2
			c-0.7,1.2-1.1,3-1.2,5.3c0,0.8,0,1.4,0.1,1.8c0.1,0.4,0.2,0.6,0.4,0.6c0.1,0,0.2,0,0.3,0c0,0-0.1,0.3-0.1,0.4
			c-0.3-0.1-0.5-0.4-0.7-0.7c-0.1-0.3-0.3-0.8-0.4-1.3c-0.1-0.5-0.2-1.2-0.1-1.9c0.1-0.9,0.2-1.7,0.4-2.5c0.3-1.1,0.9-2.2,1.8-3.3
			C3.3,6.9,3.4,6.9,3.4,7c0,0.5,0,0.9,0,1.3C3.4,8.7,3.3,9.2,3.1,9.7c-0.4,1.5-0.7,2.5-0.8,3C2.1,13.4,1.9,14.2,1.7,15.1z M2.2,16.8
			v-0.3c0.4-0.5,0.4-0.9,0.5-1.3l0.6-1.5L4.1,12c0.4-0.7,0.9-1.6,1.6-2.5C6.1,9,6.4,8.7,6.7,8.7c0.1,0.1,0.1,0.3,0,0.7
			c-0.1,0.4-0.2,0.7-0.4,1.1c0,0,0,0,0,0c-0.7,1.4-1.5,2.4-2.2,3l1.2-1.9l0.6-1C6.1,10.2,6.2,10,6,10.2c-1.2,1.7-1.9,2.8-2.1,3.3
			c-0.2,0.4-0.5,0.9-0.7,1.3c-0.2,0.4-0.4,0.7-0.5,0.9C2.7,15.8,2.7,16.2,2.2,16.8z M6.8,17.5c0,0.5-0.1,1.2-0.3,1.9
			c0-0.6,0-1.1-0.1-1.3l0.2-0.4c0-0.1,0-0.2-0.1,0l-0.1,0.2l0-0.3l0.3-0.3C6.8,17,6.9,17.1,6.8,17.5z M6.6,16.6c0.1,0,0.2,0,0.1,0.2
			l-0.3,0.5c0-0.2-0.1-0.4-0.1-0.5C6.4,16.7,6.5,16.6,6.6,16.6z M5.2,17.4c0.2-1,0.5-1.5,0.7-1.5c0.1,0.3,0.2,0.9,0.3,1.9
			c0.1,0.9,0.1,1.7,0,2.4C6.1,21.1,6,21.7,5.8,22l-0.2,0.5c0-0.7,0-1.3,0-1.7c0-0.4,0-1,0.1-1.8c0-0.7,0.1-1.6,0.1-2.5
			c0-0.2,0-0.3,0-0.2c-0.2,1-0.3,2.2-0.3,3.7l0,1l0,1.3L5.1,22c-0.2-0.8-0.2-1.6-0.2-2.5C5,18.8,5.1,18.1,5.2,17.4z M3.7,20.3
			c0.2-0.8,0.6-1.7,1.3-2.6c-0.1,0.5-0.2,0.8-0.2,1c-0.5,0.9-0.9,1.7-1.2,2.6c-0.1,0.3-0.1,0.6-0.2,0.9C3.4,21.8,3.5,21.1,3.7,20.3z
			 M4.8,21.7l-0.4-0.5l0.3-0.7C4.7,20.9,4.8,21.3,4.8,21.7z M8.3,28.8l0.2-0.7l0.8,0.5L8.3,28.8z M10.2,28.5l-1.3-0.8l-1.2-0.8
			l-0.2-0.3c-0.1-0.1-0.2-0.1-0.3-0.1c-0.1,0-0.2,0-0.3-0.2c-0.3,0.2-0.6,0.1-0.9-0.2l-0.6-0.7l-0.5-0.9l-0.2-0.1
			c-0.1,0.1-0.2,0.1-0.4,0.1c-0.2,0-0.5-0.2-0.7-0.5c-0.2-0.2-0.5-0.7-1-1.8c-0.7-1.3-1.2-2.3-1.4-3c-0.2-0.6-0.3-0.9-0.4-1.1
			c-0.1-0.2-0.1-0.2-0.1,0c0,0.1,0.1,0.5,0.3,1c0.2,0.5,0.5,1.2,0.9,2.2c0.4,0.8,0.8,1.5,1.1,2.1c-0.8-0.9-1.5-1.8-1.8-2.6
			c-0.4-0.8-0.6-1.5-0.8-2.2c-0.1-0.2-0.1-0.6-0.1-1.1c0-0.5,0-0.8,0-0.8c0.1-0.2,0.1-0.2,0.2-0.2c0.1,0,0.2,0.2,0.5,0.5
			c0.2,0.3,0.6,1.1,1,2.2c0.4,1.1,0.7,1.9,0.8,2.2c0.1,0.4,0.2,0.7,0.3,0.9c0.1,0.3,0.2,0.5,0.4,0.8c0.2,0.4,0.4,0.7,0.6,0.8
			c0.3,0.2,0.5,0.2,0.6,0.1L4,23c-0.1,0-0.1,0-0.2,0c0,0,0,0,0,0l0,0c0,0,0,0-0.1,0c0,0-0.1,0-0.1,0c0,0,0,0,0,0c0,0,0,0-0.1,0
			c0,0,0,0,0-0.1c0,0,0,0,0-0.1c0-0.1,0-0.1,0-0.2c0-0.2,0.1-0.6,0.2-1.1c0.3-0.9,0.6-1.7,1.1-2.5c-0.1,0.4-0.1,0.7-0.1,0.9
			c-0.4,1-0.7,1.7-0.9,2.3c-0.1,0.4-0.1,0.6,0,0.6L4,22.7l-0.1-0.2l0.1-0.2l0.2,0.4l0.1-0.1l0.1,0.2l-0.1,0.2L5,24l0.2-0.2L5.4,24
			c-0.2,0.2-0.3,0.4-0.3,0.4c0.2,0.4,0.4,0.7,0.6,0.9C6,25.8,6.3,26,6.5,25.8c0.1-0.1,0.2,0,0.3,0c0.1,0.1,0.2,0.3,0.3,0.5l0-0.4
			l-0.6-0.6l-0.4-0.7c-0.3-0.4-0.5-0.8-0.6-1c-0.1-0.2-0.3-0.5-0.5-0.8c-0.2-0.3-0.4-0.7-0.7-1.1l0.1-0.2l0.6,0.7
			c0.5,0.6,0.8,1.1,1,1.4C6.1,24,6.2,24,6.3,23.9l0.1-0.3l0.2,0.1l-0.1,0.7l0,0.2c0,0.2,0,0.3,0.1,0.3c0.1,0,0.1,0.1,0.2,0.3
			c0,0.1,0.2,0.4,0.5,0.7c0.3,0.4,0.7,0.7,1,0.9c0.4,0.2,0.7,0.4,0.9,0.6c0.2,0.2,0.3,0.3,0.3,0.5l0.3,0.1l-0.1-0.4l0.2-0.1
			c0.1,0.1,0.2,0.2,0.3,0.4c0.3,0.2,0.6,0.4,0.8,0.6L10.2,28.5z M4.6,22.9l0.1-0.1l0.5,0.8l-0.1,0.1L4.6,22.9z M5.4,24.5l0.2-0.2
			L6,24.9l0.3,0.5l0.1,0.3c-0.2-0.1-0.3-0.2-0.4-0.4l-0.3-0.4L5.4,24.5z M11.4,28.2l-0.7-0.5c-0.3-0.4-0.5-0.6-0.7-0.8
			c-0.1-0.2-0.3-0.3-0.4-0.3c-0.2-0.1-0.3-0.1-0.4-0.1c-0.1,0-0.2,0.1-0.3,0.3l0,0c0-0.2,0.1-0.3,0.2-0.4c0.1,0,0.2,0,0.4,0l0.8,0.4
			l1.4,0.5c0.3,0.4,0.6,0.6,0.6,0.8C12,28.2,11.7,28.2,11.4,28.2z M11.8,31.8c-0.5,0.5-1,0.9-1.6,1.3L10,33.1
			c0.4-0.2,0.9-0.6,1.5-1.1l0.3-0.3l-0.2,0c-0.2,0.2-0.5,0.4-0.7,0.6c-0.3,0.2-0.6,0.4-1,0.6l-0.5,0.2l0.1,0.1l0.4,0.1
			c0.2,0.1,0.3,0.3,0.3,0.4c-0.1,0.2-0.3,0.2-0.6,0.1l-0.4-0.2c-0.1-0.1-0.3-0.3-0.4-0.3l-0.2-0.1l0.1-0.2l0.5,0.2h0.2l-0.1-0.3
			l0.6-0.4c0.2-0.1,0.2-0.2,0.2-0.3l0.1-0.3c0.3,0.1,0.6,0,0.9-0.1c0.3-0.1,0.6-0.2,0.9-0.3C12,31.6,12,31.7,11.8,31.8z M19,5l0-0.4
			l-0.3,0.1c-0.3,0.1-0.6,0-0.9-0.3c-0.2,0-0.3,0-0.3-0.2c0.1-0.2,0.1-0.3-0.1-0.3L17,4c-0.3,0-0.5-0.1-0.6-0.3
			c-0.1-0.1,0-0.3,0.1-0.4C16.1,3.1,16,3,15.9,2.8c-0.1-0.1,0-0.3,0.1-0.4c0.2-0.1,0.5-0.1,0.9-0.1c-0.1-0.1-0.1-0.3-0.1-0.4
			c0-0.1,0.3-0.1,0.9,0.2l0.3,0.2c0.1-0.2,0.2-0.2,0.5-0.2c0.3,0.1,0.5,0.3,0.7,0.5c0.2,0.2,0.5,0.4,0.8,0.8
			c0.2-0.2,0.4-0.1,0.5,0.1L20.6,4c-0.3-0.2-0.6-0.3-0.9-0.1l-0.2-0.1c-0.3-0.4-0.5-0.7-0.6-0.9c-0.1-0.3-0.1-0.3-0.1-0.1
			c0,0.2,0.1,0.5,0.4,0.9c-0.5-0.2-0.9-0.4-1.1-0.6c-0.2-0.3-0.4-0.5-0.5-0.6c-0.1-0.2-0.2-0.2-0.2,0c0.1,0.3,0.3,0.5,0.6,0.7
			c-0.2-0.1-0.4-0.2-0.5-0.2c-0.4-0.2-0.7-0.3-1-0.3c-0.1,0-0.1,0,0,0.1c0.4,0.1,0.8,0.2,1,0.3c0.2,0.1,0.3,0.2,0.4,0.3
			c-0.3,0.1-0.7,0.2-1,0.2c-0.2,0-0.3,0-0.3,0c0,0,0.1,0,0.2,0.1c0.4,0,0.8,0,1.3-0.1C18.3,3.7,18.6,3.8,19,4
			c-0.3,0.1-0.5,0.2-0.7,0.3c-0.1,0.1,0,0.1,0.1,0c0.2-0.1,0.5-0.2,0.8-0.3l0.3,0.1c0,0.3,0.1,0.6,0.2,0.9l-0.2,0.1L19,5z M21,6.9
			c-0.6,0-0.8,0-0.8-0.1c0-0.1,0-0.1,0.2-0.3l0.1-0.2c-0.4-0.2-0.7-0.4-0.7-0.8L20,5.3c0.1-0.2,0.1-0.3,0-0.4
			c-0.1-0.1-0.2-0.3-0.2-0.6c0.1-0.3,0.4-0.3,0.9,0C21,3.9,21.2,3.8,21.5,4C21.2,4,21,4.1,21,4.4c0,0.2,0,0.4,0,0.7
			c-0.1-0.2-0.3-0.3-0.4-0.4c-0.3-0.2-0.4-0.1-0.2,0.1s0.4,0.4,0.5,0.6c-0.3,0.2-0.5,0.3-0.8,0.3c-0.1,0-0.1,0.1,0.1,0.1
			c0.1,0,0.3,0,0.5,0c0,0.2,0,0.5,0.1,0.7c0.1,0.2,0.3,0.3,0.4,0.4C21.1,6.7,21,6.8,21,6.9z M21.3,7.2c0-0.1,0.1-0.2,0.4-0.2
			c0.3,0,0.3-0.1,0.1-0.2c-0.3-0.1-0.6-0.3-0.8-0.6c-0.1-0.2-0.1-0.3,0-0.4l0.3-0.1l0.1-0.2l-0.2-0.6c0-0.3,0-0.5,0.3-0.7
			c0.3,0,0.6,0,0.9,0.3c0-0.2,0.1-0.2,0.3-0.1c0.2,0.1,0.4,0.5,0.6,1.3l0.3,0.1c0.1-0.2,0.2-0.3,0.2-0.3c0.1,0,0.2,0.2,0.3,0.6
			c0.2,0.2,0.3,0.5,0.3,1c-0.1,0.2-0.2,0.4-0.2,0.7L24,7.5c-0.1-0.3-0.1-0.7-0.1-1.1c0-0.2,0-0.2-0.1,0c0,0.3,0,0.6,0,0.8
			c-0.3-0.4-0.6-0.8-1-1.1c-0.1-0.3-0.1-0.5-0.1-0.9c0-0.3-0.1-0.3-0.1-0.2c0,0.3,0,0.7,0,1c-0.3-0.3-0.6-0.6-0.9-1.2
			c-0.1-0.2-0.1-0.2-0.1-0.1c0.2,0.4,0.4,0.8,0.7,1c0.2,0.3,0.4,0.5,0.6,0.7c-0.3-0.1-0.6-0.2-0.8-0.2c-0.2,0-0.4-0.1-0.6-0.2
			c-0.2,0-0.2,0,0,0.1c0.1,0.1,0.3,0.1,0.6,0.2c0.3,0.1,0.6,0.2,0.9,0.3c0.1,0.1,0.4,0.3,0.6,0.7l0.2,0.5c-0.3-0.2-0.7-0.3-1.1-0.4
			c-0.4-0.1-0.6-0.1-0.7-0.2c-0.3-0.1-0.3-0.1-0.1,0c0.1,0.1,0.3,0.1,0.7,0.2c0.4,0.1,0.8,0.2,1.2,0.5l0,0.1
			c-0.1,0.1-0.1,0.2-0.1,0.4L24,8.9c-0.1-0.1-0.2-0.1-0.4,0.2c0.1-0.1,0.1-0.3-0.1-0.4c-0.2-0.2-0.5-0.5-1.2-0.8l-0.1,0.2
			C21.8,7.9,21.5,7.6,21.3,7.2z M25.5,15.8c-0.1-0.2-0.3-0.5-0.5-0.8c-0.2-0.4-0.4-0.7-0.5-0.9c-0.1-0.2-0.1-0.5-0.1-0.7
			c0.1-0.2,0.1-0.4,0.2-0.5c0-0.1,0-0.1,0-0.1c-0.1,0.2-0.2,0.5-0.3,0.7l-0.3-1c0-0.4,0.2-0.9,0.6-1.5c0.1-0.2,0.1-0.2,0-0.1
			c-0.3,0.5-0.6,0.9-0.7,1.4l-0.5-1.2c0-0.2,0.1-0.6,0.4-1.2c0.1-0.3,0.1-0.3-0.1,0c-0.2,0.3-0.3,0.7-0.4,1
			c-0.2-0.7-0.3-1.2-0.5-1.7l-0.1,0l0.1,0.2c0.1,0.6,0.2,1.1,0.4,1.5c-0.2-0.2-0.5-0.4-0.7-0.5c-0.1-0.1-0.1-0.1,0,0.1
			c0.3,0.2,0.6,0.4,0.8,0.6c0.1,0.3,0.3,0.6,0.4,0.9c-0.2-0.1-0.6-0.3-1-0.5c-0.2,0-0.2,0,0,0.1c0.6,0.3,1,0.5,1.2,0.7l0.3,0.9
			c-0.1,0-0.3-0.2-0.5-0.6c-0.2-0.3-0.6-0.6-1.3-0.9C22,11.5,22,11.4,22,11.2c0-0.1,0.2-0.2,0.4-0.2c-0.1-0.2-0.1-0.3-0.2-0.5
			L22,10.4c-0.2-0.4-0.1-0.6,0.3-0.6c-0.1-0.2-0.2-0.4-0.2-0.5c0-0.2,0-0.4,0.2-0.6c0.1-0.1,0.1-0.3,0.2-0.4
			c0.2,0.1,0.4,0.2,0.6,0.3c0.2,0.1,0.3,0.2,0.3,0.5l-0.1,0.5c0,0.1,0.1,0.1,0.3-0.1c0.1-0.2,0.3-0.3,0.4-0.4
			c0.1,0.1,0.2,0.2,0.4,0.3c0.1,0.2,0.1,0.6-0.1,1.2L24,11.1c0.4-0.5,0.7-0.8,0.9-0.7c0.1,0.1,0.1,0.2,0.1,0.4c0,0.2,0,0.4,0,0.6
			c0,0.2,0,0.4-0.2,0.5c-0.2,0.1-0.3,0.4-0.3,0.7c0.4-0.3,0.5-0.2,0.4,0.2l-0.2,0.7c-0.1,0.4,0,0.5,0.2,0.5c0.2,0,0.3,0,0.3,0.1
			c0,0.1,0,0.2,0,0.4c-0.1,0.2-0.1,0.4-0.1,0.5c0,0.1,0,0.1,0.1,0.2c0.1,0.1,0.2,0,0.3,0c0.2-0.1,0.3,0,0.3,0.2c0,0.2,0,0.4,0,0.5
			c0,0.2,0.1,0.3,0.2,0.5c0.1,0.1,0.2,0.2,0.3,0.2l0.2-0.2c-0.2,0-0.3-0.1-0.3-0.4c0-0.3,0-0.6,0-0.7c-0.1-0.2-0.2-0.3-0.3-0.4
			c-0.1,0-0.3-0.6-0.6-1.7l0.4,0c0.3,1,0.5,1.5,0.6,1.6c0.2,0.1,0.2,0.2,0.2,0.3c0,0.1,0,0.3,0.1,0.6c0.2-0.1,0.3-0.2,0.4-0.6
			c0.1-0.3,0-0.5-0.3-0.7c-0.2-0.1-0.4-0.3-0.4-0.4c-0.1-0.2,0-0.3,0.2-0.4c0.1-0.1-0.2-0.3-0.9-0.8c-0.4-0.3-0.5-0.5-0.3-0.7
			c0.1-0.1,0.2-0.1,0.3,0c0.2,0.1,0.3,0.1,0.3,0.1c0.1-0.2,0-0.3-0.2-0.3c-0.2-0.1-0.3-0.1-0.3-0.2c0-0.4,0-0.6,0-0.7
			c0-0.1,0-0.3,0-0.4c-0.1-0.2-0.4-0.2-0.7,0c0.1-0.2,0.1-0.4,0.1-0.6c0-0.2-0.1-0.4-0.3-0.5l-0.2-0.5c0-0.2,0.1-0.3,0.3-0.4
			c-0.1-0.4-0.1-0.6,0-0.8c0.1-0.2,0.1-0.3,0.2-0.4c0-0.1,0.1-0.1,0.3,0c0.2,0.1,0.4,0.4,0.8,0.9c0.2-0.2,0.4-0.1,0.5,0.2
			c0.2,0.3,0.3,0.7,0.2,1.2C27,9.1,27.1,9.2,27,9.7c0.2,0.4,0.3,0.7,0.3,0.9c0,0.2,0,0.4-0.1,0.6c-0.1,0.2-0.2,0.3-0.2,0.4
			c0,0.1,0,0.1,0.1,0c0.1-0.1,0.2-0.2,0.5-0.3c0.1,0.3,0.2,0.5,0.2,0.6c0,0.1-0.1,0.3-0.2,0.4c-0.2,0.1-0.2,0.3-0.3,0.5
			c0,0.1,0.1,0.2,0.2,0.2l0.3-0.1c0.2,0,0.2,0.1,0,0.4c-0.2,0.3-0.3,0.6-0.4,0.8c-0.1,0.2-0.1,0.4-0.1,0.5c0,0.3-0.1,0.4-0.1,0.5
			c0-0.3,0-0.7,0-1c0-0.4-0.1-0.8-0.2-1.2c0.1-0.1,0.2-0.3,0.4-0.8c0.1-0.2,0.1-0.3-0.1-0.1c-0.1,0.3-0.3,0.6-0.4,0.6
			c-0.1-0.4-0.3-0.9-0.4-1.5c0.2-0.3,0.3-0.6,0.3-1.1c0-0.4,0-0.4-0.1-0.1c-0.1,0.4-0.2,0.8-0.4,1c-0.2-0.5-0.3-0.9-0.5-1.4
			C26,9.3,26,9,26,8.7c0-0.3,0-0.3-0.1,0c0,0.2,0,0.4-0.1,0.6l-0.4-1l-0.2-0.6c-0.1-0.2-0.1-0.2-0.1,0l0.2,0.7
			c-0.2-0.2-0.3-0.3-0.5-0.4c-0.1-0.1-0.2-0.1-0.1,0c0.3,0.2,0.5,0.5,0.7,0.7c0.1,0.4,0.3,0.7,0.4,1.1c-0.4-0.4-0.7-0.6-0.9-0.6
			c-0.2-0.1-0.2,0,0,0.1c0.3,0.2,0.7,0.5,1.1,1c0.1,0.4,0.3,0.8,0.4,1.2c-0.2-0.1-0.5-0.4-0.8-0.8c-0.1-0.1-0.1-0.1,0,0.1
			c0.3,0.4,0.5,0.7,0.9,1l0.3,1c-0.3-0.3-0.6-0.5-1-0.8c-0.2-0.1-0.2-0.1,0,0.1c0.4,0.3,0.8,0.7,1.2,1.2c0.1,0.3,0.2,0.9,0.2,1.8
			c0,0.2-0.2,0.4-0.5,0.5l-0.1,0.8l-0.4,0C25.8,16.2,25.6,16,25.5,15.8z M26.1,16.6c0.1,0,0.2,0,0.4,0c-0.2,0.9-0.3,1.8-0.5,2.4
			l-0.2-0.1C25.9,18,26,17.1,26.1,16.6z M23,21.5c-0.1-0.1-0.3-0.2-0.6-0.5c-0.3-0.3-0.4-0.5-0.3-0.7C22.1,20.2,22,20.1,22,20
			c-0.1-0.1,0-0.3,0-0.4c0.1-0.1,0.3-0.1,0.6,0.2c0.1-0.2,0.1-0.4,0-0.6c-0.1-0.2-0.1-0.3-0.2-0.5c-0.1-0.3-0.3-0.5-0.4-0.7
			c-0.1-0.3-0.2-0.4-0.1-0.4c0.1,0,0.2,0,0.3,0.1c0.3-0.3,0.5-0.4,0.6-0.3c0.1,0.1,0.2,0.4,0.2,0.7c0.1,0.3,0.1,0.6,0,1L23,19.1
			l0.1,0.1c0,0.1,0,0.3-0.1,0.8c0,0.1,0,0.2,0.1,0.3c0-0.1,0-0.2,0-0.3c0-0.1,0-0.2,0.1-0.4c0.1-0.2,0.1-0.3,0.1-0.4
			c0,0,0-0.1-0.1-0.1c0.1,0,0.1-0.1,0.1-0.1c0-0.1,0-0.1,0-0.2c0-0.1,0-0.2,0-0.5c0-0.3,0-0.5-0.1-0.7c-0.1-0.2-0.1-0.3-0.1-0.4
			c0-0.1-0.1-0.1-0.2-0.1c-0.1,0-0.3,0.1-0.5,0.4c0.1-0.5,0.2-0.8,0.3-1c0.1-0.2,0.2-0.2,0.3-0.1c0.1,0.1,0.2,0.1,0.2,0.2
			c0,0.1,0.1,0.1,0.2,0c0.1-0.1,0.1-0.1,0.2-0.1c0,0,0.1,0.1,0.1,0.2c0.1,0.1,0.1,0.2,0.1,0.3c0,0.1,0,0.3,0.1,0.6
			c0,0.3,0,0.5-0.1,0.6c-0.1,0.1-0.1,0.2-0.1,0.4c0,0.6,0.1,0.9,0.1,0.9c0.1,0,0.2-0.1,0.2-0.1c0.1-0.1,0.2-0.1,0.3-0.1
			c0.1,0,0.1,0.2,0.1,0.5c0,0.3,0,0.3,0.1,0.1c0-0.2,0.1-0.4,0.3-0.4c0.1,0,0.1,0.3,0.1,1c-0.4,0.4-0.8,0.7-1,1
			c-0.1-0.3-0.1-0.5,0-0.6c0.1-0.1,0.1-0.2,0.2-0.4c0.1-0.1,0.1-0.3,0.1-0.4c0.1-0.3,0.1-0.3-0.1-0.1C24,20,24,20.2,23.9,20.3
			c-0.1,0.1-0.1,0.2-0.2,0.3c0-0.2-0.1-0.5-0.2-1c-0.1-0.3-0.1-0.3-0.1,0c0.1,0.5,0.2,1.1,0.2,1.6c-0.2-0.2-0.4-0.4-0.6-0.5
			c-0.2-0.2-0.4-0.3-0.5-0.5c-0.1-0.1-0.1-0.1-0.1,0c0.1,0.2,0.3,0.4,0.6,0.6c0.3,0.2,0.4,0.4,0.5,0.5c0.1,0.1,0.1,0.1,0.1,0.2
			c-0.1,0.1-0.2,0.3-0.4,0.4c-0.1,0-0.1-0.1-0.1-0.2C23.1,21.6,23.1,21.5,23,21.5z M16.8,27.8c0.1-0.2,0.3-0.3,0.5-0.4
			c1-0.5,1.6-0.8,1.9-0.8c0.1,0,0.1,0,0.2,0.1l0.1,0.2l-0.2,0.1C19.3,26.9,19.2,27,19,27c-0.1,0-0.3,0-0.6,0.1
			c-0.3,0.1-0.4,0.3-0.4,0.5c0,0.1-0.1,0.2-0.2,0.3c-0.3,0.1-0.5,0.3-0.7,0.4l-0.5,0L16.8,27.8z M18.3,28.4L18.3,28.4L18.3,28.4
			c-0.1,0-0.2,0-0.3,0l-0.6-0.1l0.6-0.3L18.3,28.4c-0.1-0.1,0-0.1,0-0.1L18.2,28c-0.1-0.2,0-0.4,0.2-0.5c0.2-0.1,0.4-0.2,0.6-0.2
			c0.1,0,0.1,0.2,0,0.5C19,27.9,18.7,28.1,18.3,28.4L18.3,28.4z M15.8,30.6l-0.1-0.3l-0.5,0.6l-0.4,0.2c-0.2,0.1-0.4,0.2-0.5,0.2
			L13.7,31l0.3-0.2l0.1,0.1c-0.1,0.2,0,0.1,0.2-0.1l0.5-0.5c0-0.3,0-0.7-0.2-1.2c-0.2-0.5-0.3-0.8-0.4-0.9c0-0.1-0.3-0.1-0.8-0.1
			c0.3-0.1,0.6-0.2,1,0l0.4,0.2l0.2-0.1l0,0L14.7,28l0.2,0l0.2,0.2l0,0l0,0l0.1,0.1c0.6,0.6,0.9,1.1,1,1.3c0.1,0.2,0.1,0.5,0,0.7
			C16,30.5,15.9,30.7,15.8,30.6z M19.9,33l0.2,0L20,33.2l-0.4,0.1c-0.2,0.2-0.4,0.3-0.7,0.3l-0.3-0.1l-0.1-0.2
			c0.1-0.1,0.2-0.2,0.3-0.2c0.1,0,0.2-0.1,0.4-0.1l0.4,0.1L19.9,33z M19.3,33c-0.3,0-0.5,0.2-0.6,0.2h-0.2c-0.3-0.4-0.6-0.5-0.8-0.7
			l-0.8-0.7c0.1-0.1,0.5,0,1,0.1L19.3,33z M21.7,29.4c0.3,0,0.6,0,0.8,0c0.3-0.1,0.9-0.6,1.9-1.4c0.9-0.7,1.7-1.2,2.4-1.5
			c0.2-0.1,0.2-0.2,0-0.3c-0.2,0-0.4-0.1-0.8-0.1c-0.1,0.1-0.1,0.2,0,0.2c0.2,0,0.3,0,0.3,0c-0.8,0.4-1.4,0.8-1.9,1.2
			c0-0.3,0.1-0.7,0.1-1.4c0-0.2-0.1-0.4-0.2-0.6c-0.1-0.1,0-0.2,0.3-0.3l0.2-0.1v0.4l-0.3-0.1l0,0.2c0.1,0.1,0.2,0.2,0.4,0.3
			l0.9,0.1l0.4,0c0.5,0,0.7,0.1,0.7,0.4c0,0.2,0,0.4,0.1,0.6c0.1,0.5,0.3,1,0.6,1.4c-0.1,0.2-0.2,0.4-0.4,0.7l-0.9,0.6
			c-0.8,0.5-1.8,1.3-3.1,2.2c-0.9,0-2.1-0.1-3.4-0.2c-1-0.1-2-0.4-3.3-0.7l-0.3-0.1l0.1-0.1c0.2-0.3,0.3-0.4,0.3-0.5
			c0-0.1,0-0.3-0.1-0.6c-0.1-0.3-0.2-0.7-0.6-1.1v-0.1l0.3,0c0.7,0,1.3,0.1,1.9,0.3c0.6,0.1,1.2,0.3,2,0.4
			C20.9,29.2,21.4,29.3,21.7,29.4z M20.4,28.9c-0.3,0-0.8-0.1-1.4-0.3l0.6-0.2c0.3,0.1,0.5,0,0.6-0.2C20.2,28.5,20.3,28.7,20.4,28.9
			z M24,23.8c-0.2,0.3-0.3,0.5-0.2,0.8c-0.3,0.2-0.6,0.4-0.9,0.8c-0.3,0.3-0.5,0.6-0.7,0.8c-0.2,0.2-0.3,0.4-0.5,0.4
			c-0.2,0.1-0.4,0-0.7-0.1L21,26.9l-1.2,0.7l-0.6,0.2c0-0.1,0.1-0.3,0.1-0.6l0.2-0.2c0.8-0.4,1.3-0.8,1.4-1.1
			c0.2-0.3,0.3-0.5,0.5-0.7c0.2-0.2,0.3-0.4,0.4-0.7l0-0.4l-0.1-0.4c0.2,0.2,0.3,0.3,0.5,0.1c0.2-0.4,0.5-0.9,0.8-1.2
			c0.3-0.4,0.6-0.7,0.9-1.1c0.3-0.3,0.6-0.6,0.8-0.8l0,0.4c-0.7,0.8-1.1,1.4-1.3,1.7c-0.6,0.9-1,1.6-1.2,2.1
			c-0.1,0.3-0.3,0.5-0.6,0.7c-0.2,0.1-0.3,0.2-0.4,0.3c-0.1,0.1,0,0.2,0.1,0.1c0.1-0.1,0.2-0.2,0.4-0.3c0.3-0.1,0.8-0.7,1.6-1.8
			l0-0.6l0.2-0.3c0,0.3,0,0.5,0.1,0.6c0.1,0,0.2-0.1,0.3-0.3c0.1-0.2,0.4-0.8,0.9-1.8c-0.1,0.3-0.1,0.6,0,0.8
			c-0.3,0.2-0.4,0.5-0.2,1L24,23.8z M27.9,20c0,0.3-0.1,0.5-0.3,0.7c-0.5,0.5-0.7,0.9-0.6,1c0.1,0.2,0.1,0.5-0.1,0.7
			c-0.3,0.3-0.6,0.7-1,1c0.1,0.2,0,0.4-0.3,0.6c-0.3,0.2-0.7,0.3-1.1,0.5c0.7-0.6,1.2-1.2,1.4-1.8c0.2-0.2,0.5-0.4,0.6-0.4
			c0.2-0.1,0.2-0.1,0.1-0.1c-0.2,0.1-0.4,0.2-0.7,0.4c0.2-0.4,0.4-0.9,0.5-1.4c0.4-0.4,0.7-0.8,0.8-1c0.2-0.2,0.2-0.3,0-0.2
			c-0.2,0.3-0.4,0.6-0.8,0.9c0.2-0.5,0.3-1,0.4-1.7c0.1-0.4,0-0.4-0.1-0.2l-0.2,0.6c-0.1-0.2-0.2-0.4-0.3-0.6l0.2,0.7
			c0,0.3-0.2,0.7-0.3,1.2c-0.2-0.5-0.4-0.9-0.6-1.2c-0.2-0.3-0.3-0.3-0.1,0c0.3,0.4,0.5,0.9,0.7,1.5c-0.1,0.5-0.3,1-0.5,1.4
			c-0.1-0.2-0.3-0.4-0.4-0.4c-0.1-0.1-0.1,0,0,0.1c0.2,0.1,0.3,0.3,0.4,0.4c-0.1,0.3-0.3,0.6-0.5,0.9c-0.2,0.3-0.4,0.5-0.7,0.6
			c0.3-0.4,0.4-0.9,0.3-1.4c0-0.1,0.1-0.2,0.2-0.2c0.1-0.1,0.2-0.1,0.1-0.2C25.1,22.2,25,22,25,21.8c0.1,0,0.2,0,0.4,0
			c0.1-0.1,0.1-0.2,0-0.4c-0.2-0.2-0.3-0.5-0.3-0.8c0-0.2,0.1-0.3,0.4-0.2c0.1,0,0.1-0.2,0-0.4l-0.3-0.4c-0.2-0.5-0.1-0.6,0.3-0.5
			l0.4,0.3c0.3,0.1,0.4-0.1,0.4-0.6c0-0.1,0.1-0.1,0.3-0.1c0.2,0.1,0.3-0.1,0.5-0.4c0.1-0.2,0.3,0,0.3,0.4c0,0.6,0.1,0.9,0.4,0.9
			C27.9,19.6,27.9,19.7,27.9,20z M28.4,18.5c0,0.1,0,0.2-0.1,0.3c-0.1,0.1-0.2,0.1-0.4,0.2l-0.2-0.3c0-0.3-0.1-0.5-0.3-0.8
			c0.1-0.1,0.2-0.1,0.4-0.2c0.1-0.1,0.1,0-0.1,0c-0.2,0-0.3,0.2-0.4,0.2h0c0.1-0.4,0.3-0.8,0.5-1.1c0.1-0.1,0-0.2-0.1,0
			c-0.2,0.3-0.4,0.5-0.5,0.9c-0.1-0.1-0.1-0.2-0.2-0.4c0-0.2-0.1-0.2-0.1,0c0,0.3,0.1,0.5,0.2,0.6c-0.3,0.4-0.5,0.5-0.6,0.5
			c0.1-0.6,0.2-1.1,0.4-1.7c0.3-0.3,0.5-0.4,0.7-0.3c0.3-0.2,0.5-0.3,0.7-0.1c0.1,0.2,0.1,0.3,0.1,0.5c0,0.2-0.1,0.4-0.2,0.6
			c0.2,0,0.3,0.1,0.3,0.3c-0.1,0.4-0.3,0.7-0.5,0.8C28.3,18.3,28.4,18.4,28.4,18.5z"/>
	</g>
	<g>
		<path class="st0" d="M4.3,29.5C4.3,29.6,4.4,29.6,4.3,29.5c0.2,0.2,0.4,0.1,0.5-0.1C5,29.2,4.9,29.1,4.8,29
			c-0.1-0.1-0.1-0.1-0.2,0L4.3,29.5L4.3,29.5z M2,28c0.2,0.1,0.3,0.3,0.5,0c0.1-0.2,0.1-0.4,0-0.4c0,0-0.1-0.1-0.1-0.1
			c0,0,0,0-0.1,0L2,28L2,28z M5.3,29.6c0-0.2,0.1-0.3-0.1-0.4l0,0c0.1,0,0.2,0.1,0.2,0.1c0.1,0,0.2,0.1,0.3,0.1l0,0
			c0,0-0.2-0.1-0.2,0c0,0.1-0.1,0.5-0.2,0.6l-0.1,0.7l0.5-0.4c0.1-0.1,0.4-0.4,0.4-0.5c0.1-0.1,0-0.2,0-0.2l0-0.1
			c0.1,0.1,0.2,0.1,0.2,0.1c0.1,0,0.2,0.1,0.2,0.1l0,0c-0.2-0.1-0.3,0.1-0.5,0.2l-1,0.9L5,31L5.3,29.6L5.3,29.6z M4.1,29.8
			c0,0.1-0.1,0.2-0.1,0.3c0,0.1,0,0.1,0.1,0.2l0,0c-0.1-0.1-0.2-0.1-0.3-0.2c-0.1,0-0.2-0.1-0.2-0.1l0-0.1c0.1,0,0.2,0.1,0.2,0
			c0.1,0,0.2-0.2,0.2-0.3l0.4-0.6c0-0.1,0.1-0.2,0.2-0.3c0-0.1,0-0.2-0.1-0.2l0,0c0.1,0.1,0.2,0.1,0.3,0.2c0.1,0,0.2,0.1,0.2,0.1
			c0.2,0.1,0.4,0.3,0.2,0.6c-0.2,0.3-0.5,0.3-0.7,0.1c0,0-0.1-0.1-0.1-0.1L4.1,29.8L4.1,29.8z M3.2,28.5c0-0.1,0.1-0.2,0.2-0.3
			c0-0.1,0-0.2-0.1-0.2l0.1,0l0.9,0.5L4,28.8l0,0c0.1-0.2,0.1-0.3-0.1-0.5l-0.1-0.1c0,0,0,0-0.1,0l-0.3,0.5c0.2,0.2,0.4,0.1,0.5-0.1
			l0,0c-0.1,0.1-0.1,0.2-0.2,0.3c-0.1,0.1-0.1,0.2-0.2,0.3l0,0C3.5,29,3.4,29,3.2,28.8L3,29.2c0,0.1-0.1,0.2-0.1,0.2
			c0,0.1,0.1,0.2,0.2,0.2c0.2,0.1,0.3,0.1,0.5-0.1l0,0L3.4,30l-1-0.6l0,0c0,0,0.1,0.1,0.2,0c0,0,0.1-0.2,0.2-0.3L3.2,28.5L3.2,28.5z
			 M2.3,29c0,0.1,0,0.2,0.1,0.2l0,0c0,0-0.1-0.1-0.1-0.1c0,0-0.1,0-0.2-0.1l0-0.2l0-0.6c0-0.1,0-0.1-0.1-0.2l-0.2,0.2
			c0,0.1-0.1,0.2-0.2,0.3c0,0.1,0,0.1,0.1,0.2l0,0c-0.1,0-0.2-0.1-0.2-0.1c-0.1-0.1-0.2-0.1-0.3-0.2l0,0c0.1,0,0.1,0.1,0.2,0
			c0.1,0,0.2-0.2,0.2-0.3L2,27.6c0,0,0.1-0.2,0.2-0.3c0-0.1,0-0.1-0.1-0.2l0-0.1c0.1,0.1,0.2,0.1,0.3,0.2c0.1,0,0.2,0.1,0.2,0.1
			c0.2,0.1,0.4,0.3,0.2,0.6c-0.2,0.2-0.4,0.3-0.6,0.1V29L2.3,29z M13.4,29.5l-0.3-0.6L13,29.6L13.4,29.5L13.4,29.5z M8.4,30.6
			c0,0.1,0,0.2,0.1,0.3C8.6,31,8.6,31,8.7,31c0.2,0,0.2-0.2,0.2-0.4c0-0.2-0.1-0.2-0.2-0.3c-0.1,0-0.2,0-0.3,0l-0.1,0L8.4,30.6
			L8.4,30.6z M8.4,30.2L8.4,30.2c0.1,0,0.2,0,0.2-0.1c0.1-0.1,0.1-0.2,0.1-0.3c0-0.2-0.1-0.3-0.3-0.3c0,0-0.1,0-0.1,0s0,0.1,0,0.1
			L8.4,30.2L8.4,30.2z M7.2,30.8c0,0.1,0,0.2,0.1,0.3c0,0.1,0.1,0.1,0.2,0c0.2,0,0.3-0.2,0.2-0.4c0-0.1-0.1-0.2-0.2-0.3
			c-0.1,0-0.2,0-0.3,0l0,0L7.2,30.8L7.2,30.8z M7.1,30.4L7.1,30.4c0.1,0,0.2,0,0.3-0.1c0.1-0.1,0.1-0.2,0.1-0.3
			c0-0.2-0.1-0.3-0.3-0.3c0,0-0.1,0-0.1,0l0,0.1L7.1,30.4L7.1,30.4z M12.9,29.7c0,0.1-0.1,0.3,0,0.4c0,0.1,0.1,0.1,0.2,0.1l0,0.1
			c-0.1,0-0.2,0-0.2,0c-0.1,0-0.2,0-0.2,0l0,0c0.1,0,0.1-0.1,0.2-0.2c0-0.2,0-0.3,0.1-0.5l0.2-1h0.1l0.6,1.2c0,0.1,0.1,0.2,0.2,0.3
			c0,0,0.1,0,0.2,0l0,0.1c-0.1,0-0.2,0-0.3,0c-0.1,0-0.2,0-0.3,0l0,0c0,0,0.2,0,0.1-0.2c0,0,0-0.1,0-0.2l-0.2-0.3L12.9,29.7
			L12.9,29.7L12.9,29.7z M12.2,28.8L12.2,28.8l0.1,0.5l0,0c-0.1-0.3-0.3-0.4-0.5-0.4c-0.4,0-0.4,0.5-0.4,0.9
			c0.1,0.4,0.2,0.8,0.6,0.7c0.3-0.1,0.3-0.3,0.3-0.6l0,0l0.1,0.6l-0.1-0.1c-0.1,0.2-0.3,0.2-0.4,0.2c-0.4,0.1-0.8-0.2-0.9-0.7
			c-0.1-0.5,0.2-0.9,0.6-1c0.2,0,0.3,0,0.5,0.1L12.2,28.8L12.2,28.8z M10.7,29.5c0-0.1,0-0.2,0-0.3c-0.1-0.1-0.2-0.1-0.2-0.1l0,0
			c0.1,0,0.2,0,0.3,0c0.1,0,0.2,0,0.3,0l0,0c0,0-0.1,0-0.1,0.1c0,0.1,0,0.2,0,0.3l0.1,0.7c0,0.1,0,0.3,0.1,0.3
			c0,0.1,0.1,0.1,0.2,0.1l0,0.1c-0.1,0-0.2,0-0.3,0c-0.1,0-0.2,0-0.3,0l0,0c0.1,0,0.2,0,0.1-0.1c0-0.1,0-0.2,0-0.3L10.7,29.5
			L10.7,29.5z M9.3,29.7c0-0.1,0-0.3,0-0.3c0-0.1-0.2-0.1-0.2,0l0-0.1c0.1,0,0.2,0,0.3,0c0.1,0,0.2,0,0.3,0l0,0.1
			c-0.1,0-0.2,0-0.2,0.1c0,0.1,0,0.3,0,0.3l0.1,0.7c0,0.3,0.1,0.4,0.4,0.3c0.1,0,0.2,0,0.3-0.1c0.1-0.1,0.1-0.2,0.1-0.3l0.1,0l0,0.5
			c0,0-0.1,0-0.1,0c-0.3,0-0.7,0.1-1.1,0.2l0,0c0.1,0,0.2,0,0.1-0.1c0-0.1,0-0.3,0-0.3L9.3,29.7L9.3,29.7z M8.1,30
			c0-0.1,0-0.3-0.1-0.3c0-0.1-0.1-0.1-0.2-0.1l0,0c0.1,0,0.2,0,0.3,0c0.1,0,0.1,0,0.2,0c0.2,0,0.5,0,0.5,0.3c0,0.2-0.1,0.3-0.3,0.4
			c0.1,0,0.2,0,0.3,0.1c0.1,0.1,0.2,0.2,0.2,0.3c0,0.2-0.1,0.3-0.1,0.4C9,31,8.8,31.1,8.7,31.1c0,0-0.2,0-0.2,0
			c-0.1,0-0.2,0-0.3,0.1l0-0.1c0,0,0.2,0,0.1-0.1c0-0.1,0-0.2,0-0.3L8.1,30L8.1,30z M6.8,30.2c0-0.1,0-0.3,0-0.3
			c0-0.1-0.1-0.1-0.2,0l0-0.1c0.1,0,0.2,0,0.3,0c0.1,0,0.2,0,0.3,0c0.2,0,0.5,0,0.5,0.3c0,0.2-0.1,0.3-0.2,0.4c0.1,0,0.2,0,0.3,0
			C7.9,30.5,8,30.6,8,30.8c0,0.2,0,0.3-0.1,0.4c-0.1,0.1-0.2,0.1-0.3,0.1c-0.1,0-0.2,0-0.3,0c-0.2,0-0.2,0-0.4,0l0,0
			c0.1,0,0.2,0,0.2-0.1c0-0.1,0-0.3,0-0.3L6.8,30.2L6.8,30.2z M19.8,30.4l-0.1-0.7l-0.3,0.6L19.8,30.4L19.8,30.4z M22.4,30.2
			c0-0.1,0-0.3,0-0.3c0-0.1-0.1-0.1-0.2-0.1v-0.1c0.1,0,0.2,0,0.3,0c0.1,0,0.2,0,0.3,0v0.1c-0.1,0-0.2,0-0.2,0.1c0,0.1,0,0.3,0,0.3
			l0.1,0.7c0,0.1,0,0.3,0,0.3c0,0.1,0.1,0.1,0.2,0.1v0c-0.1,0-0.2,0-0.3,0c-0.1,0-0.2,0-0.3,0v0c0,0,0.2,0,0.2-0.1
			c0-0.1,0-0.2,0-0.3L22.4,30.2L22.4,30.2z M20.9,30.1c0-0.1,0-0.3,0-0.3c0-0.1-0.1-0.1-0.2-0.1l0,0c0.1,0,0.2,0,0.3,0
			c0.1,0,0.2,0,0.3,0l0,0.1c0,0-0.2,0-0.2,0c0,0.1,0,0.3-0.1,0.3l-0.1,0.7c0,0.3,0,0.4,0.2,0.4c0.1,0,0.2,0,0.3,0
			c0.2-0.1,0.2-0.2,0.2-0.3h0.1l-0.1,0.5c0,0-0.1,0-0.1,0c-0.4-0.1-0.7-0.1-1.1-0.2v0c0.1,0,0.2,0,0.2-0.1c0,0,0-0.2,0.1-0.3
			L20.9,30.1L20.9,30.1z M19.2,30.5c0,0.1-0.1,0.3-0.2,0.3c0,0.1,0.1,0.1,0.2,0.2v0c-0.1,0-0.2,0-0.2,0c-0.1,0-0.2,0-0.2,0l0,0
			c0.1,0,0.2,0,0.2-0.2c0.1-0.2,0.2-0.3,0.2-0.5l0.5-0.9l0.1,0l0.2,1.3c0,0.1,0,0.2,0.1,0.3c0,0.1,0.1,0.1,0.2,0.1v0
			c-0.1,0-0.2,0-0.3,0c-0.1,0-0.2,0-0.3,0l0-0.1c0,0,0.2,0,0.2,0c0-0.1,0-0.2,0-0.2l0-0.3H19.2L19.2,30.5L19.2,30.5z M19.1,29.7
			L19.1,29.7c0-0.3-0.1-0.4-0.3-0.4c-0.1,0-0.2,0-0.2,0l-0.2,1.2c0,0.2,0,0.2,0.2,0.3v0c-0.1,0-0.2,0-0.3-0.1c-0.1,0-0.2,0-0.3,0v0
			c0.2,0,0.3,0,0.3-0.2l0.2-1.2c0,0-0.1-0.1-0.2-0.1c-0.2,0-0.3,0-0.3,0.3l-0.1,0l0.1-0.4l1.3,0.2L19.1,29.7L19.1,29.7z M17.1,29.4
			c0-0.1,0-0.2,0-0.3c0-0.1-0.1-0.1-0.2-0.1v-0.1c0.1,0,0.2,0.1,0.3,0.1c0.1,0,0.2,0,0.3,0l0,0c0,0-0.2,0-0.2,0.1
			c0,0.1,0,0.2-0.1,0.3l-0.1,0.7c0,0.1,0,0.3,0,0.3c0,0.1,0.1,0.1,0.2,0.1v0.1c-0.1,0-0.2,0-0.3-0.1c-0.1,0-0.2,0-0.3,0v0
			c0.1,0,0.2,0,0.2-0.1c0,0,0.1-0.2,0.1-0.3L17.1,29.4L17.1,29.4z M26.5,28.3l-0.6-0.4l0.2,0.7L26.5,28.3L26.5,28.3z M23.9,30.1
			l-0.5-0.5l0.1,0.7L23.9,30.1L23.9,30.1z M26.2,28.7c0,0.1,0.1,0.3,0.1,0.4c0.1,0.1,0.2,0,0.2,0l0,0.1c0,0-0.1,0.1-0.2,0.1
			c0,0-0.1,0.1-0.2,0.2l0-0.1c0.1-0.1,0.1-0.1,0.1-0.2c-0.1-0.2-0.1-0.3-0.2-0.5l-0.3-1l0,0l1.1,0.8c0,0,0.2,0.2,0.2,0.2
			c0.1,0,0.2,0,0.2,0v0.1c-0.1,0-0.2,0.1-0.2,0.2c-0.1,0.1-0.2,0.1-0.2,0.2l0,0c0,0,0.1-0.1,0.1-0.2c0,0-0.1-0.1-0.2-0.1l-0.2-0.2
			L26.2,28.7L26.2,28.7L26.2,28.7z M24.2,29c-0.1,0-0.2,0-0.3,0l0-0.1c0.1,0,0.1,0,0.2-0.1c0,0,0.1,0,0.2-0.1l1.5,0.5l-0.4-0.6
			c-0.1-0.1-0.2-0.2-0.2-0.3c-0.1-0.1-0.2,0-0.3,0l0,0c0.1,0,0.2-0.1,0.2-0.1c0-0.1,0.1-0.1,0.2-0.2l0,0c0,0.1-0.1,0.1-0.1,0.2
			c0,0.1,0.2,0.3,0.3,0.4l0.6,0.9l0,0c-0.1,0-0.2,0-0.2-0.1L24.3,29l0.5,0.7c0,0.1,0.2,0.2,0.2,0.3c0.1,0,0.2,0,0.2,0v0
			c0,0.1-0.1,0.1-0.2,0.2c-0.1,0-0.1,0.1-0.2,0.2l0,0C25,30.2,25,30.1,25,30c0-0.1-0.1-0.2-0.2-0.3L24.2,29L24.2,29z M23.5,30.5
			c0,0.1,0,0.3,0.1,0.4c0,0.1,0.2,0,0.2,0l0,0c-0.1,0-0.1,0.1-0.2,0.1c-0.1,0-0.2,0.1-0.2,0.1l0,0c0.1-0.1,0.1-0.1,0.1-0.3
			c0-0.2,0-0.3-0.1-0.5l-0.2-1h0.1l1,0.9c0,0,0.2,0.2,0.2,0.2c0.1,0,0.2,0,0.2,0l0,0c-0.1,0-0.2,0.1-0.3,0.2c-0.1,0-0.2,0.1-0.3,0.2
			l0-0.1c0.1,0,0.2-0.1,0.1-0.2c0,0-0.1-0.1-0.2-0.2l-0.2-0.2L23.5,30.5L23.5,30.5L23.5,30.5z"/>
	</g>
	<g>
		<g>
			<path class="st0" d="M3.8,19.5c-0.1-0.3-0.2-0.7-0.3-0.8l0-0.1l0.9-0.5c-0.1-0.5-0.2-0.9-0.2-1.2l-1-0.2l0-0.1c0-0.2,0-1.1,0-1.3
				l0-0.1l1-0.2c0-0.4,0.1-0.8,0.2-1.2l-0.5-0.3l0.3,0l0.4,0.2l0,0.1c-0.1,0.5-0.2,0.9-0.2,1.4l0,0.1l-1,0.2c0,0.3,0,0.9,0,1.1
				l1,0.2l0,0.1c0,0.4,0.1,0.9,0.2,1.4l0,0.1l-0.9,0.5c0,0.1,0.1,0.4,0.2,0.6L3.8,19.5z M5.6,22.4c0.1,0.1,0.2,0.2,0.2,0.3l0.9-0.4
				l0,0.1c0.3,0.3,0.6,0.6,1,1l0.1,0l-0.4,0.9c0.2,0.2,0.7,0.5,0.9,0.7L9,24.3l0.1,0c0.4,0.2,0.8,0.4,1.2,0.6l0.1,0l-0.1,1
				c0.3,0.1,0.8,0.3,1.1,0.4l0.5-0.9l0.1,0c0.5,0.1,0.9,0.2,1.4,0.2l0.1,0l0.2,1c0.1,0,0.3,0,0.6,0c0.2,0,0.4,0,0.6,0l0.2-1l0.1,0
				c0.5,0,0.9-0.1,1.4-0.2l0.1,0l0.5,0.9c0.3-0.1,0.8-0.3,1.1-0.4l-0.1-1l0.1,0c0.4-0.2,0.8-0.4,1.2-0.6l0.1,0l0.8,0.7
				c0.2-0.1,0.7-0.5,0.9-0.7l-0.4-0.9l0.1,0c0.4-0.3,0.7-0.6,1-1l0-0.1l0.9,0.4c0.2-0.2,0.5-0.7,0.7-0.9L22.5,21l0-0.1
				c0.2-0.4,0.4-0.8,0.6-1.2l0-0.1l1,0.1c0.1-0.3,0.3-0.8,0.3-1.1l-0.9-0.5l0-0.1c0.1-0.5,0.2-0.9,0.2-1.4l0-0.1l1-0.2
				c0-0.3,0-0.9,0-1.1l-1-0.2l0-0.1c0-0.5-0.1-0.9-0.2-1.4l0-0.1l0.9-0.5c-0.1-0.3-0.3-0.8-0.3-1.1l-1,0.1l0-0.1
				c-0.2-0.4-0.4-0.8-0.6-1.2l0-0.1l0.7-0.7c-0.1-0.2-0.5-0.7-0.7-0.9l-0.9,0.4l0-0.1c-0.3-0.3-0.6-0.7-1-1l-0.1,0l0.4-0.9
				c-0.2-0.2-0.7-0.5-0.9-0.7l-0.7,0.7l-0.1,0c-0.4-0.2-0.8-0.4-1.2-0.6l-0.1,0l0.1-1c-0.2-0.1-0.8-0.3-1.1-0.4l-0.5,0.9l-0.1,0
				c-0.5-0.1-0.9-0.2-1.4-0.2l-0.1,0l-0.2-1c-0.1,0-0.3,0-0.6,0c-0.2,0-0.4,0-0.6,0l-0.2,1l-0.1,0c-0.5,0-0.9,0.1-1.4,0.2l-0.1,0
				l-0.5-0.9c-0.3,0.1-0.8,0.3-1.1,0.4l0.1,1l-0.1,0C9.9,7.1,9.5,7.3,9.1,7.6l-0.1,0L8.3,6.9C8.2,7,8,7.1,7.9,7.2l0-0.3
				c0.2-0.1,0.3-0.2,0.4-0.3l0.1,0l0.8,0.7c0.4-0.2,0.7-0.4,1.1-0.6l-0.1-1l0.1,0c0.2-0.1,1-0.4,1.2-0.4l0.1,0L12,6.2
				C12.4,6.1,12.8,6,13.2,6l0.2-1l0.1,0l0,0l0,0l0,0l0,0h0h0l0,0l0,0l0,0l0,0l0,0h0l0,0l0.1,0h0l0,0l0,0c0,0,0,0,0,0h0.1
				c0.1,0,0.3,0,0.5,0c0.2,0,0.5,0,0.7,0l0.1,0l0.2,1c0.4,0,0.8,0.1,1.2,0.2l0.5-0.9l0.1,0c0.2,0.1,1.1,0.3,1.3,0.4l0.1,0l-0.1,1
				c0.4,0.2,0.8,0.4,1.1,0.6L20,6.7l0.1,0c0.2,0.1,0.9,0.6,1.1,0.8l0.1,0l-0.4,0.9c0.3,0.3,0.6,0.6,0.9,0.9l0.9-0.4l0,0.1
				c0.1,0.2,0.7,0.9,0.8,1.1l0,0.1l-0.7,0.7c0.2,0.4,0.4,0.7,0.6,1.1l1-0.1l0,0.1c0.1,0.2,0.3,1,0.4,1.3l0,0.1l-0.9,0.5
				c0.1,0.4,0.2,0.8,0.2,1.2l1,0.2l0,0.1c0,0.2,0,1.1,0,1.3l0,0.1l-1,0.2c0,0.4-0.1,0.8-0.2,1.2l0.9,0.5l0,0.1
				c0,0.2-0.3,1.1-0.4,1.2l0,0.1l-1-0.1c-0.2,0.4-0.4,0.8-0.6,1.1l0.7,0.7l0,0.1c-0.1,0.2-0.6,0.9-0.8,1.1l0,0.1l-0.9-0.4
				c-0.3,0.3-0.6,0.6-0.9,0.9l0.4,0.9l-0.1,0c-0.2,0.1-0.9,0.6-1.1,0.8l-0.1,0l-0.8-0.7c-0.4,0.2-0.7,0.4-1.1,0.6l0.1,1l-0.1,0
				c-0.2,0.1-1,0.3-1.2,0.4l-0.1,0l-0.5-0.9c-0.4,0.1-0.8,0.2-1.2,0.2l-0.2,1l-0.1,0c-0.1,0-0.4,0-0.7,0c-0.2,0-0.5,0-0.7,0l-0.1,0
				l-0.2-1c-0.4,0-0.8-0.1-1.2-0.2l-0.5,0.9l-0.1,0c-0.2-0.1-1-0.3-1.2-0.4l-0.1,0l0.1-1c-0.4-0.2-0.8-0.4-1.1-0.6l-0.7,0.7l-0.1,0
				c-0.2-0.1-0.9-0.6-1.1-0.8l-0.1,0l0.4-0.9c-0.3-0.3-0.6-0.6-0.9-0.9l-0.9,0.4l0-0.1c0-0.1-0.1-0.2-0.2-0.3L5.6,22.4z"/>
		</g>
		<g>
			<path class="st0" d="M14.1,24c-1.2,0-2.3-0.2-3.4-0.7l-0.1-0.1l3.5-4.4l3.4,4.5l-0.1,0.1C16.4,23.7,15.3,24,14.1,24z M11,23.1
				c1,0.4,2,0.6,3.1,0.6c1,0,2.1-0.2,3.1-0.6l-3.1-4L11,23.1z M19.9,21.5l-3.1-4.7l5.3-1.9l0,0.2c0.3,2.3-0.5,4.6-2.1,6.3L19.9,21.5
				z M17.2,16.9l2.8,4.2c1.4-1.6,2.1-3.7,1.9-5.9L17.2,16.9z M8.3,21.4l-0.1-0.1c-1.6-1.7-2.3-4-2-6.4l0-0.2l5.3,2L8.3,21.4z
				 M6.4,15.2c-0.2,2.1,0.5,4.3,1.9,5.9l2.8-4.1L6.4,15.2z M15.8,13.7L15.6,8l0.2,0c2.3,0.5,4.2,1.9,5.4,4l0.1,0.1L15.8,13.7z
				 M15.9,8.3l0.1,5l4.8-1.3C19.8,10.1,18,8.8,15.9,8.3z M12.5,13.7l-5.4-1.6l0.1-0.1c1.2-2,3.1-3.4,5.4-3.9l0.2,0L12.5,13.7z
				 M7.5,11.9l4.8,1.4l0.2-5C10.4,8.8,8.6,10.1,7.5,11.9z"/>
		</g>
		<g>
			<path class="st0" d="M14.1,8.6l-1.7,4.8l0,0.1l-0.1,0l-5.1,0.1l4.1,3.1l0.1,0l0,0.1l-1.5,4.9l4.2-2.9l0.1,0l0.1,0l4.2,2.9
				L17,16.9l0-0.1l0.1,0l4.1-3.1L16,13.6l-0.1,0l0-0.1L14.1,8.6L14.1,8.6z M12.3,13.3L14,8.2l0.1-0.3l0.1,0.3l1.8,5.1l5.4,0.1l0.3,0
				l-0.3,0.2l-4.3,3.3l1.5,5.2l0.1,0.3l-0.3-0.2l-4.4-3.1l-4.4,3.1l-0.3,0.2l0.1-0.3l1.5-5.2l-4.3-3.3l-0.3-0.2l0.3,0L12.3,13.3
				L12.3,13.3z"/>
		</g>
		<g>
			<g>
				<polygon class="st0" points="4.7,24.1 4.7,24.1 4.7,24.1 				"/>
			</g>
			<g>
				<polygon class="st0" points="4.2,23.2 4.7,24.1 4.7,24.1 				"/>
			</g>
		</g>
	</g>
</g>
</svg>

